<svg xmlns="http://www.w3.org/2000/svg" xmlns:xlink="http://www.w3.org/1999/xlink" contentStyleType="text/css" data-diagram-type="ACTIVITY" height="1127px" preserveAspectRatio="none" style="width:1487px;height:1127px;background:#FFFFFF;" version="1.1" viewBox="0 0 1487 1127" width="1487px" zoomAndPan="magnify"><defs/><g><ellipse cx="746.8662" cy="20" fill="#222222" rx="10" ry="10" style="stroke:#222222;stroke-width:1;"/><rect fill="#F1F1F1" height="33.9688" rx="12.5" ry="12.5" style="stroke:#181818;stroke-width:0.5;" width="312.377" x="590.6777" y="50"/><text fill="#000000" font-family="sans-serif" font-size="12" lengthAdjust="spacing" textLength="292.377" x="600.6777" y="71.1387">&#1050;&#1083;&#1080;&#1077;&#1085;&#1090; &#1088;&#1077;&#1075;&#1080;&#1089;&#1090;&#1088;&#1080;&#1088;&#1091;&#1077;&#1090;&#1089;&#1103; &#1080;&#1083;&#1080; &#1074;&#1093;&#1086;&#1076;&#1080;&#1090; &#1074; &#1072;&#1082;&#1082;&#1072;&#1091;&#1085;&#1090;</text><rect fill="#F1F1F1" height="33.9688" rx="12.5" ry="12.5" style="stroke:#181818;stroke-width:0.5;" width="279.8457" x="606.9434" y="103.9688"/><text fill="#000000" font-family="sans-serif" font-size="12" lengthAdjust="spacing" textLength="259.8457" x="616.9434" y="125.1074">&#1057;&#1080;&#1089;&#1090;&#1077;&#1084;&#1072; &#1087;&#1086;&#1076;&#1090;&#1074;&#1077;&#1088;&#1078;&#1076;&#1072;&#1077;&#1090; &#1091;&#1095;&#1105;&#1090;&#1085;&#1099;&#1077; &#1076;&#1072;&#1085;&#1085;&#1099;&#1077;</text><rect fill="#F1F1F1" height="33.9688" rx="12.5" ry="12.5" style="stroke:#181818;stroke-width:0.5;" width="246.8105" x="623.4609" y="157.9375"/><text fill="#000000" font-family="sans-serif" font-size="12" lengthAdjust="spacing" textLength="226.8105" x="633.4609" y="179.0762">&#1050;&#1083;&#1080;&#1077;&#1085;&#1090; &#1074;&#1099;&#1073;&#1080;&#1088;&#1072;&#1077;&#1090; &#1090;&#1086;&#1074;&#1072;&#1088;&#1099; &#1074; &#1082;&#1086;&#1088;&#1079;&#1080;&#1085;&#1091;</text><rect fill="#F1F1F1" height="33.9688" rx="12.5" ry="12.5" style="stroke:#181818;stroke-width:0.5;" width="369.6934" x="562.0195" y="211.9063"/><text fill="#000000" font-family="sans-serif" font-size="12" lengthAdjust="spacing" textLength="349.6934" x="572.0195" y="233.0449">&#1050;&#1083;&#1080;&#1077;&#1085;&#1090; &#1086;&#1092;&#1086;&#1088;&#1084;&#1083;&#1103;&#1077;&#1090; &#1079;&#1072;&#1082;&#1072;&#1079;, &#1074;&#1099;&#1073;&#1080;&#1088;&#1072;&#1077;&#1090; &#1076;&#1086;&#1089;&#1090;&#1072;&#1074;&#1082;&#1091; &#1080; &#1086;&#1087;&#1083;&#1072;&#1090;&#1091;</text><rect fill="#555555" height="6" rx="2.5" ry="2.5" style="stroke:#555555;stroke-width:1;" width="1465.7764" x="11" y="265.875"/><rect fill="#F1F1F1" height="33.9688" rx="12.5" ry="12.5" style="stroke:#181818;stroke-width:0.5;" width="315.5117" x="83.8721" y="413.8281"/><text fill="#000000" font-family="sans-serif" font-size="12" lengthAdjust="spacing" textLength="295.5117" x="93.8721" y="434.9668">&#1057;&#1080;&#1089;&#1090;&#1077;&#1084;&#1072; &#1087;&#1088;&#1086;&#1074;&#1077;&#1088;&#1103;&#1077;&#1090; &#1085;&#1072;&#1083;&#1080;&#1095;&#1080;&#1077; &#1090;&#1086;&#1074;&#1072;&#1088;&#1072; &#1085;&#1072; &#1089;&#1082;&#1083;&#1072;&#1076;&#1077;</text><polygon fill="#F1F1F1" points="192.9067,482.7969,290.3491,482.7969,302.3491,494.7969,290.3491,506.7969,192.9067,506.7969,180.9067,494.7969,192.9067,482.7969" style="stroke:#181818;stroke-width:0.5;"/><text fill="#000000" font-family="sans-serif" font-size="11" lengthAdjust="spacing" textLength="97.4424" x="192.9067" y="498.605">&#1058;&#1086;&#1074;&#1072;&#1088; &#1076;&#1086;&#1089;&#1090;&#1091;&#1087;&#1077;&#1085;?</text><text fill="#000000" font-family="sans-serif" font-size="11" lengthAdjust="spacing" textLength="14.3462" x="166.5605" y="492.2026">&#1076;&#1072;</text><text fill="#000000" font-family="sans-serif" font-size="11" lengthAdjust="spacing" textLength="20.3672" x="302.3491" y="492.2026">&#1085;&#1077;&#1090;</text><rect fill="#F1F1F1" height="33.9688" rx="12.5" ry="12.5" style="stroke:#181818;stroke-width:0.5;" width="162.7461" x="23" y="516.7969"/><text fill="#000000" font-family="sans-serif" font-size="12" lengthAdjust="spacing" textLength="142.7461" x="33" y="537.9355">&#1058;&#1086;&#1074;&#1072;&#1088; &#1079;&#1072;&#1088;&#1077;&#1079;&#1077;&#1088;&#1074;&#1080;&#1088;&#1086;&#1074;&#1072;&#1085;</text><rect fill="#F1F1F1" height="33.9688" rx="12.5" ry="12.5" style="stroke:#181818;stroke-width:0.5;" width="271.5898" x="243.0879" y="516.7969"/><text fill="#000000" font-family="sans-serif" font-size="12" lengthAdjust="spacing" textLength="251.5898" x="253.0879" y="537.9355">&#1059;&#1074;&#1077;&#1076;&#1086;&#1084;&#1083;&#1077;&#1085;&#1080;&#1077; &#1082;&#1083;&#1080;&#1077;&#1085;&#1090;&#1072; &#1086; &#1085;&#1077;&#1076;&#1086;&#1089;&#1090;&#1091;&#1087;&#1085;&#1086;&#1089;&#1090;&#1080;</text><rect fill="#F1F1F1" height="33.9688" rx="12.5" ry="12.5" style="stroke:#181818;stroke-width:0.5;" width="346.2734" x="205.7461" y="584.7813"/><text fill="#000000" font-family="sans-serif" font-size="12" lengthAdjust="spacing" textLength="326.2734" x="215.7461" y="605.9199">&#1050;&#1083;&#1080;&#1077;&#1085;&#1090; &#1074;&#1099;&#1073;&#1080;&#1088;&#1072;&#1077;&#1090; &#1072;&#1083;&#1100;&#1090;&#1077;&#1088;&#1085;&#1072;&#1090;&#1080;&#1074;&#1091; &#1080;&#1083;&#1080; &#1091;&#1076;&#1072;&#1083;&#1103;&#1077;&#1090; &#1090;&#1086;&#1074;&#1072;&#1088;</text><polygon fill="#F1F1F1" points="241.6279,624.75,253.6279,636.75,241.6279,648.75,229.6279,636.75,241.6279,624.75" style="stroke:#181818;stroke-width:0.5;"/><rect fill="#F1F1F1" height="33.9688" rx="12.5" ry="12.5" style="stroke:#181818;stroke-width:0.5;" width="228.541" x="697.1667" y="291.875"/><text fill="#000000" font-family="sans-serif" font-size="12" lengthAdjust="spacing" textLength="208.541" x="707.1667" y="313.0137">&#1050;&#1083;&#1080;&#1077;&#1085;&#1090; &#1074;&#1099;&#1073;&#1080;&#1088;&#1072;&#1077;&#1090; &#1089;&#1087;&#1086;&#1089;&#1086;&#1073; &#1086;&#1087;&#1083;&#1072;&#1090;&#1099;</text><rect fill="#F1F1F1" height="33.9688" rx="12.5" ry="12.5" style="stroke:#181818;stroke-width:0.5;" width="349.5488" x="636.6628" y="345.8438"/><text fill="#000000" font-family="sans-serif" font-size="12" lengthAdjust="spacing" textLength="329.5488" x="646.6628" y="366.9824">&#1057;&#1080;&#1089;&#1090;&#1077;&#1084;&#1072; &#1087;&#1088;&#1086;&#1074;&#1077;&#1088;&#1103;&#1077;&#1090; &#1076;&#1077;&#1090;&#1072;&#1083;&#1080; &#1080; &#1087;&#1088;&#1086;&#1074;&#1086;&#1076;&#1080;&#1090; &#1090;&#1088;&#1072;&#1085;&#1079;&#1072;&#1082;&#1094;&#1080;&#1102;</text><polygon fill="#F1F1F1" points="760.1272,399.8125,862.7473,399.8125,874.7473,411.8125,862.7473,423.8125,760.1272,423.8125,748.1272,411.8125,760.1272,399.8125" style="stroke:#181818;stroke-width:0.5;"/><text fill="#000000" font-family="sans-serif" font-size="11" lengthAdjust="spacing" textLength="102.6201" x="760.1272" y="415.6206">&#1054;&#1087;&#1083;&#1072;&#1090;&#1072; &#1091;&#1089;&#1087;&#1077;&#1096;&#1085;&#1072;?</text><text fill="#000000" font-family="sans-serif" font-size="11" lengthAdjust="spacing" textLength="14.3462" x="733.781" y="409.2183">&#1076;&#1072;</text><text fill="#000000" font-family="sans-serif" font-size="11" lengthAdjust="spacing" textLength="20.3672" x="874.7473" y="409.2183">&#1085;&#1077;&#1090;</text><rect fill="#F1F1F1" height="33.9688" rx="12.5" ry="12.5" style="stroke:#181818;stroke-width:0.5;" width="164.709" x="577.9756" y="433.8125"/><text fill="#000000" font-family="sans-serif" font-size="12" lengthAdjust="spacing" textLength="144.709" x="587.9756" y="454.9512">&#1054;&#1087;&#1083;&#1072;&#1090;&#1072; &#1087;&#1086;&#1076;&#1090;&#1074;&#1077;&#1088;&#1078;&#1076;&#1077;&#1085;&#1072;</text><rect fill="#F1F1F1" height="33.9688" rx="12.5" ry="12.5" style="stroke:#181818;stroke-width:0.5;" width="259.877" x="832.606" y="433.8125"/><text fill="#000000" font-family="sans-serif" font-size="12" lengthAdjust="spacing" textLength="239.877" x="842.606" y="454.9512">&#1059;&#1074;&#1077;&#1076;&#1086;&#1084;&#1083;&#1077;&#1085;&#1080;&#1077; &#1086; &#1087;&#1088;&#1086;&#1073;&#1083;&#1077;&#1084;&#1077; &#1089; &#1087;&#1083;&#1072;&#1090;&#1077;&#1078;&#1086;&#1084;</text><rect fill="#F1F1F1" height="33.9688" rx="12.5" ry="12.5" style="stroke:#181818;stroke-width:0.5;" width="364.7129" x="780.188" y="502.7813"/><text fill="#000000" font-family="sans-serif" font-size="12" lengthAdjust="spacing" textLength="344.7129" x="790.188" y="523.9199">&#1055;&#1088;&#1077;&#1076;&#1083;&#1086;&#1078;&#1077;&#1085;&#1080;&#1077; &#1087;&#1086;&#1074;&#1090;&#1086;&#1088;&#1080;&#1090;&#1100; &#1086;&#1087;&#1083;&#1072;&#1090;&#1091; &#1080;&#1083;&#1080; &#1080;&#1079;&#1084;&#1077;&#1085;&#1080;&#1090;&#1100; &#1089;&#1087;&#1086;&#1089;&#1086;&#1073;</text><polygon fill="#F1F1F1" points="879.7732,570.7656,1045.3157,570.7656,1057.3157,582.7656,1045.3157,594.7656,879.7732,594.7656,867.7732,582.7656,879.7732,570.7656" style="stroke:#181818;stroke-width:0.5;"/><text fill="#000000" font-family="sans-serif" font-size="11" lengthAdjust="spacing" textLength="165.5425" x="879.7732" y="586.5737">&#1050;&#1083;&#1080;&#1077;&#1085;&#1090; &#1091;&#1089;&#1090;&#1088;&#1072;&#1085;&#1080;&#1083; &#1087;&#1088;&#1086;&#1073;&#1083;&#1077;&#1084;&#1091;?</text><text fill="#000000" font-family="sans-serif" font-size="11" lengthAdjust="spacing" textLength="14.3462" x="853.427" y="580.1714">&#1076;&#1072;</text><text fill="#000000" font-family="sans-serif" font-size="11" lengthAdjust="spacing" textLength="20.3672" x="1057.3157" y="580.1714">&#1085;&#1077;&#1090;</text><rect fill="#F1F1F1" height="33.9688" rx="12.5" ry="12.5" style="stroke:#181818;stroke-width:0.5;" width="164.709" x="772.6846" y="604.7656"/><text fill="#000000" font-family="sans-serif" font-size="12" lengthAdjust="spacing" textLength="144.709" x="782.6846" y="625.9043">&#1054;&#1087;&#1083;&#1072;&#1090;&#1072; &#1087;&#1086;&#1076;&#1090;&#1074;&#1077;&#1088;&#1078;&#1076;&#1077;&#1085;&#1072;</text><rect fill="#F1F1F1" height="33.9688" rx="12.5" ry="12.5" style="stroke:#181818;stroke-width:0.5;" width="133.8652" x="1003.1172" y="604.7656"/><text fill="#000000" font-family="sans-serif" font-size="12" lengthAdjust="spacing" textLength="113.8652" x="1013.1172" y="625.9043">&#1047;&#1072;&#1082;&#1072;&#1079; &#1086;&#1090;&#1084;&#1077;&#1085;&#1103;&#1077;&#1090;&#1089;&#1103;</text><rect fill="#F1F1F1" height="33.9688" rx="12.5" ry="12.5" style="stroke:#181818;stroke-width:0.5;" width="225.3125" x="957.3936" y="668.75"/><text fill="#000000" font-family="sans-serif" font-size="12" lengthAdjust="spacing" textLength="205.3125" x="967.3936" y="689.8887">&#1042;&#1086;&#1079;&#1074;&#1088;&#1072;&#1090; &#1089;&#1088;&#1077;&#1076;&#1089;&#1090;&#1074; (&#1077;&#1089;&#1083;&#1080; &#1089;&#1087;&#1080;&#1089;&#1072;&#1085;&#1099;)</text><ellipse cx="1070.0498" cy="733.7188" fill="none" rx="11" ry="11" style="stroke:#222222;stroke-width:1;"/><ellipse cx="1070.0498" cy="733.7188" fill="#222222" rx="6" ry="6" style="stroke:#222222;stroke-width:1;"/><polygon fill="#F1F1F1" points="811.4373,754.7188,823.4373,766.7188,811.4373,778.7188,799.4373,766.7188,811.4373,754.7188" style="stroke:#181818;stroke-width:0.5;"/><rect fill="#F1F1F1" height="33.9688" rx="12.5" ry="12.5" style="stroke:#181818;stroke-width:0.5;" width="245.1699" x="1206.1563" y="445.8281"/><text fill="#000000" font-family="sans-serif" font-size="12" lengthAdjust="spacing" textLength="225.1699" x="1216.1563" y="466.9668">&#1057;&#1080;&#1089;&#1090;&#1077;&#1084;&#1072; &#1091;&#1074;&#1077;&#1076;&#1086;&#1084;&#1083;&#1103;&#1077;&#1090; &#1089;&#1082;&#1083;&#1072;&#1076; &#1086; &#1089;&#1073;&#1086;&#1088;&#1077;</text><rect fill="#F1F1F1" height="33.9688" rx="12.5" ry="12.5" style="stroke:#181818;stroke-width:0.5;" width="272.0703" x="1192.7061" y="514.7969"/><text fill="#000000" font-family="sans-serif" font-size="12" lengthAdjust="spacing" textLength="252.0703" x="1202.7061" y="535.9355">&#1057;&#1086;&#1090;&#1088;&#1091;&#1076;&#1085;&#1080;&#1082;&#1080; &#1089;&#1082;&#1083;&#1072;&#1076;&#1072; &#1082;&#1086;&#1084;&#1087;&#1083;&#1077;&#1082;&#1090;&#1091;&#1102;&#1090; &#1079;&#1072;&#1082;&#1072;&#1079;</text><rect fill="#F1F1F1" height="33.9688" rx="12.5" ry="12.5" style="stroke:#181818;stroke-width:0.5;" width="169.3086" x="1244.0869" y="582.7813"/><text fill="#000000" font-family="sans-serif" font-size="12" lengthAdjust="spacing" textLength="149.3086" x="1254.0869" y="603.9199">&#1058;&#1086;&#1074;&#1072;&#1088; &#1075;&#1086;&#1090;&#1086;&#1074; &#1082; &#1086;&#1090;&#1087;&#1088;&#1072;&#1074;&#1082;&#1077;</text><rect fill="#555555" height="6" rx="2.5" ry="2.5" style="stroke:#555555;stroke-width:1;" width="1465.7764" x="11" y="798.7188"/><rect fill="#F1F1F1" height="33.9688" rx="12.5" ry="12.5" style="stroke:#181818;stroke-width:0.5;" width="180.3359" x="656.6982" y="824.7188"/><text fill="#000000" font-family="sans-serif" font-size="12" lengthAdjust="spacing" textLength="160.3359" x="666.6982" y="845.8574">&#1043;&#1077;&#1085;&#1077;&#1088;&#1072;&#1094;&#1080;&#1103; &#1089;&#1095;&#1105;&#1090;-&#1092;&#1072;&#1082;&#1090;&#1091;&#1088;&#1099;</text><rect fill="#F1F1F1" height="33.9688" rx="12.5" ry="12.5" style="stroke:#181818;stroke-width:0.5;" width="224.7559" x="634.4883" y="878.6875"/><text fill="#000000" font-family="sans-serif" font-size="12" lengthAdjust="spacing" textLength="204.7559" x="644.4883" y="899.8262">&#1054;&#1090;&#1087;&#1088;&#1072;&#1074;&#1082;&#1072; &#1091;&#1074;&#1077;&#1076;&#1086;&#1084;&#1083;&#1077;&#1085;&#1080;&#1103; &#1082;&#1083;&#1080;&#1077;&#1085;&#1090;&#1091;</text><rect fill="#F1F1F1" height="33.9688" rx="12.5" ry="12.5" style="stroke:#181818;stroke-width:0.5;" width="271.6543" x="611.0391" y="932.6563"/><text fill="#000000" font-family="sans-serif" font-size="12" lengthAdjust="spacing" textLength="251.6543" x="621.0391" y="953.7949">&#1047;&#1072;&#1082;&#1072;&#1079; &#1087;&#1077;&#1088;&#1077;&#1093;&#1086;&#1076;&#1080;&#1090; &#1074; &#1089;&#1090;&#1072;&#1090;&#1091;&#1089; &#171;&#1054;&#1090;&#1087;&#1088;&#1072;&#1074;&#1083;&#1077;&#1085;&#187;</text><rect fill="#F1F1F1" height="33.9688" rx="12.5" ry="12.5" style="stroke:#181818;stroke-width:0.5;" width="354.6465" x="569.543" y="986.625"/><text fill="#000000" font-family="sans-serif" font-size="12" lengthAdjust="spacing" textLength="334.6465" x="579.543" y="1007.7637">&#1057;&#1080;&#1089;&#1090;&#1077;&#1084;&#1072; &#1086;&#1073;&#1085;&#1086;&#1074;&#1083;&#1103;&#1077;&#1090; &#1089;&#1090;&#1072;&#1090;&#1091;&#1089; &#1079;&#1072;&#1082;&#1072;&#1079;&#1072; (&#1074; &#1087;&#1091;&#1090;&#1080;, &#1076;&#1086;&#1089;&#1090;&#1072;&#1074;&#1082;&#1072;)</text><rect fill="#F1F1F1" height="33.9688" rx="12.5" ry="12.5" style="stroke:#181818;stroke-width:0.5;" width="361.2324" x="566.25" y="1040.5938"/><text fill="#000000" font-family="sans-serif" font-size="12" lengthAdjust="spacing" textLength="341.2324" x="576.25" y="1061.7324">&#1050;&#1083;&#1080;&#1077;&#1085;&#1090; &#1087;&#1086;&#1083;&#1091;&#1095;&#1072;&#1077;&#1090; &#1091;&#1074;&#1077;&#1076;&#1086;&#1084;&#1083;&#1077;&#1085;&#1080;&#1103; &#1086;&#1073; &#1080;&#1079;&#1084;&#1077;&#1085;&#1077;&#1085;&#1080;&#1080; &#1089;&#1090;&#1072;&#1090;&#1091;&#1089;&#1072;</text><ellipse cx="746.8662" cy="1105.5625" fill="none" rx="11" ry="11" style="stroke:#222222;stroke-width:1;"/><ellipse cx="746.8662" cy="1105.5625" fill="#222222" rx="6" ry="6" style="stroke:#222222;stroke-width:1;"/><line style="stroke:#181818;stroke-width:1;" x1="746.8662" x2="746.8662" y1="30" y2="50"/><polygon fill="#181818" points="742.8662,40,746.8662,50,750.8662,40,746.8662,44" style="stroke:#181818;stroke-width:1;"/><line style="stroke:#181818;stroke-width:1;" x1="746.8662" x2="746.8662" y1="83.9688" y2="103.9688"/><polygon fill="#181818" points="742.8662,93.9688,746.8662,103.9688,750.8662,93.9688,746.8662,97.9688" style="stroke:#181818;stroke-width:1;"/><line style="stroke:#181818;stroke-width:1;" x1="746.8662" x2="746.8662" y1="137.9375" y2="157.9375"/><polygon fill="#181818" points="742.8662,147.9375,746.8662,157.9375,750.8662,147.9375,746.8662,151.9375" style="stroke:#181818;stroke-width:1;"/><line style="stroke:#181818;stroke-width:1;" x1="746.8662" x2="746.8662" y1="191.9063" y2="211.9063"/><polygon fill="#181818" points="742.8662,201.9063,746.8662,211.9063,750.8662,201.9063,746.8662,205.9063" style="stroke:#181818;stroke-width:1;"/><line style="stroke:#181818;stroke-width:1;" x1="378.8828" x2="378.8828" y1="550.7656" y2="584.7813"/><polygon fill="#181818" points="374.8828,574.7813,378.8828,584.7813,382.8828,574.7813,378.8828,578.7813" style="stroke:#181818;stroke-width:1;"/><line style="stroke:#181818;stroke-width:1;" x1="180.9067" x2="104.373" y1="494.7969" y2="494.7969"/><line style="stroke:#181818;stroke-width:1;" x1="104.373" x2="104.373" y1="494.7969" y2="516.7969"/><polygon fill="#181818" points="100.373,506.7969,104.373,516.7969,108.373,506.7969,104.373,510.7969" style="stroke:#181818;stroke-width:1;"/><line style="stroke:#181818;stroke-width:1;" x1="302.3491" x2="378.8828" y1="494.7969" y2="494.7969"/><line style="stroke:#181818;stroke-width:1;" x1="378.8828" x2="378.8828" y1="494.7969" y2="516.7969"/><polygon fill="#181818" points="374.8828,506.7969,378.8828,516.7969,382.8828,506.7969,378.8828,510.7969" style="stroke:#181818;stroke-width:1;"/><line style="stroke:#181818;stroke-width:1;" x1="104.373" x2="104.373" y1="550.7656" y2="636.75"/><line style="stroke:#181818;stroke-width:1;" x1="104.373" x2="229.6279" y1="636.75" y2="636.75"/><polygon fill="#181818" points="219.6279,632.75,229.6279,636.75,219.6279,640.75,223.6279,636.75" style="stroke:#181818;stroke-width:1;"/><line style="stroke:#181818;stroke-width:1;" x1="378.8828" x2="378.8828" y1="618.75" y2="636.75"/><line style="stroke:#181818;stroke-width:1;" x1="378.8828" x2="253.6279" y1="636.75" y2="636.75"/><polygon fill="#181818" points="263.6279,632.75,253.6279,636.75,263.6279,640.75,259.6279,636.75" style="stroke:#181818;stroke-width:1;"/><line style="stroke:#181818;stroke-width:1;" x1="241.6279" x2="241.6279" y1="447.7969" y2="482.7969"/><polygon fill="#181818" points="237.6279,472.7969,241.6279,482.7969,245.6279,472.7969,241.6279,476.7969" style="stroke:#181818;stroke-width:1;"/><line style="stroke:#181818;stroke-width:1;" x1="811.4373" x2="811.4373" y1="325.8438" y2="345.8438"/><polygon fill="#181818" points="807.4373,335.8438,811.4373,345.8438,815.4373,335.8438,811.4373,339.8438" style="stroke:#181818;stroke-width:1;"/><line style="stroke:#181818;stroke-width:1;" x1="962.5444" x2="962.5444" y1="467.7813" y2="502.7813"/><polygon fill="#181818" points="958.5444,492.7813,962.5444,502.7813,966.5444,492.7813,962.5444,496.7813" style="stroke:#181818;stroke-width:1;"/><line style="stroke:#181818;stroke-width:1;" x1="1070.0498" x2="1070.0498" y1="638.7344" y2="668.75"/><polygon fill="#181818" points="1066.0498,658.75,1070.0498,668.75,1074.0498,658.75,1070.0498,662.75" style="stroke:#181818;stroke-width:1;"/><line style="stroke:#181818;stroke-width:1;" x1="1070.0498" x2="1070.0498" y1="702.7188" y2="722.7188"/><polygon fill="#181818" points="1066.0498,712.7188,1070.0498,722.7188,1074.0498,712.7188,1070.0498,716.7188" style="stroke:#181818;stroke-width:1;"/><line style="stroke:#181818;stroke-width:1;" x1="867.7732" x2="855.0391" y1="582.7656" y2="582.7656"/><line style="stroke:#181818;stroke-width:1;" x1="855.0391" x2="855.0391" y1="582.7656" y2="604.7656"/><polygon fill="#181818" points="851.0391,594.7656,855.0391,604.7656,859.0391,594.7656,855.0391,598.7656" style="stroke:#181818;stroke-width:1;"/><line style="stroke:#181818;stroke-width:1;" x1="1057.3157" x2="1070.0498" y1="582.7656" y2="582.7656"/><line style="stroke:#181818;stroke-width:1;" x1="1070.0498" x2="1070.0498" y1="582.7656" y2="604.7656"/><polygon fill="#181818" points="1066.0498,594.7656,1070.0498,604.7656,1074.0498,594.7656,1070.0498,598.7656" style="stroke:#181818;stroke-width:1;"/><line style="stroke:#181818;stroke-width:1;" x1="855.0391" x2="855.0391" y1="638.7344" y2="766.7188"/><line style="stroke:#181818;stroke-width:1;" x1="855.0391" x2="823.4373" y1="766.7188" y2="766.7188"/><polygon fill="#181818" points="833.4373,762.7188,823.4373,766.7188,833.4373,770.7188,829.4373,766.7188" style="stroke:#181818;stroke-width:1;"/><line style="stroke:#181818;stroke-width:1;" x1="962.5444" x2="962.5444" y1="536.75" y2="570.7656"/><polygon fill="#181818" points="958.5444,560.7656,962.5444,570.7656,966.5444,560.7656,962.5444,564.7656" style="stroke:#181818;stroke-width:1;"/><line style="stroke:#181818;stroke-width:1;" x1="748.1272" x2="660.3301" y1="411.8125" y2="411.8125"/><line style="stroke:#181818;stroke-width:1;" x1="660.3301" x2="660.3301" y1="411.8125" y2="433.8125"/><polygon fill="#181818" points="656.3301,423.8125,660.3301,433.8125,664.3301,423.8125,660.3301,427.8125" style="stroke:#181818;stroke-width:1;"/><line style="stroke:#181818;stroke-width:1;" x1="874.7473" x2="962.5444" y1="411.8125" y2="411.8125"/><line style="stroke:#181818;stroke-width:1;" x1="962.5444" x2="962.5444" y1="411.8125" y2="433.8125"/><polygon fill="#181818" points="958.5444,423.8125,962.5444,433.8125,966.5444,423.8125,962.5444,427.8125" style="stroke:#181818;stroke-width:1;"/><line style="stroke:#181818;stroke-width:1;" x1="660.3301" x2="660.3301" y1="467.7813" y2="766.7188"/><line style="stroke:#181818;stroke-width:1;" x1="660.3301" x2="799.4373" y1="766.7188" y2="766.7188"/><polygon fill="#181818" points="789.4373,762.7188,799.4373,766.7188,789.4373,770.7188,793.4373,766.7188" style="stroke:#181818;stroke-width:1;"/><line style="stroke:#181818;stroke-width:1;" x1="811.4373" x2="811.4373" y1="379.8125" y2="399.8125"/><polygon fill="#181818" points="807.4373,389.8125,811.4373,399.8125,815.4373,389.8125,811.4373,393.8125" style="stroke:#181818;stroke-width:1;"/><line style="stroke:#181818;stroke-width:1;" x1="1328.7412" x2="1328.7412" y1="479.7969" y2="514.7969"/><polygon fill="#181818" points="1324.7412,504.7969,1328.7412,514.7969,1332.7412,504.7969,1328.7412,508.7969" style="stroke:#181818;stroke-width:1;"/><line style="stroke:#181818;stroke-width:1;" x1="1328.7412" x2="1328.7412" y1="548.7656" y2="582.7813"/><polygon fill="#181818" points="1324.7412,572.7813,1328.7412,582.7813,1332.7412,572.7813,1328.7412,576.7813" style="stroke:#181818;stroke-width:1;"/><line style="stroke:#181818;stroke-width:1;" x1="241.6279" x2="241.6279" y1="271.875" y2="413.8281"/><polygon fill="#181818" points="237.6279,403.8281,241.6279,413.8281,245.6279,403.8281,241.6279,407.8281" style="stroke:#181818;stroke-width:1;"/><line style="stroke:#181818;stroke-width:1;" x1="811.4373" x2="811.4373" y1="271.875" y2="291.875"/><polygon fill="#181818" points="807.4373,281.875,811.4373,291.875,815.4373,281.875,811.4373,285.875" style="stroke:#181818;stroke-width:1;"/><line style="stroke:#181818;stroke-width:1;" x1="1328.7412" x2="1328.7412" y1="271.875" y2="445.8281"/><polygon fill="#181818" points="1324.7412,435.8281,1328.7412,445.8281,1332.7412,435.8281,1328.7412,439.8281" style="stroke:#181818;stroke-width:1;"/><line style="stroke:#181818;stroke-width:1;" x1="241.6279" x2="241.6279" y1="648.75" y2="798.7188"/><polygon fill="#181818" points="237.6279,788.7188,241.6279,798.7188,245.6279,788.7188,241.6279,792.7188" style="stroke:#181818;stroke-width:1;"/><line style="stroke:#181818;stroke-width:1;" x1="811.4373" x2="811.4373" y1="778.7188" y2="798.7188"/><polygon fill="#181818" points="807.4373,788.7188,811.4373,798.7188,815.4373,788.7188,811.4373,792.7188" style="stroke:#181818;stroke-width:1;"/><line style="stroke:#181818;stroke-width:1;" x1="1328.7412" x2="1328.7412" y1="616.75" y2="798.7188"/><polygon fill="#181818" points="1324.7412,788.7188,1328.7412,798.7188,1332.7412,788.7188,1328.7412,792.7188" style="stroke:#181818;stroke-width:1;"/><line style="stroke:#181818;stroke-width:1;" x1="746.8662" x2="746.8662" y1="245.875" y2="265.875"/><polygon fill="#181818" points="742.8662,255.875,746.8662,265.875,750.8662,255.875,746.8662,259.875" style="stroke:#181818;stroke-width:1;"/><line style="stroke:#181818;stroke-width:1;" x1="746.8662" x2="746.8662" y1="804.7188" y2="824.7188"/><polygon fill="#181818" points="742.8662,814.7188,746.8662,824.7188,750.8662,814.7188,746.8662,818.7188" style="stroke:#181818;stroke-width:1;"/><line style="stroke:#181818;stroke-width:1;" x1="746.8662" x2="746.8662" y1="858.6875" y2="878.6875"/><polygon fill="#181818" points="742.8662,868.6875,746.8662,878.6875,750.8662,868.6875,746.8662,872.6875" style="stroke:#181818;stroke-width:1;"/><line style="stroke:#181818;stroke-width:1;" x1="746.8662" x2="746.8662" y1="912.6563" y2="932.6563"/><polygon fill="#181818" points="742.8662,922.6563,746.8662,932.6563,750.8662,922.6563,746.8662,926.6563" style="stroke:#181818;stroke-width:1;"/><line style="stroke:#181818;stroke-width:1;" x1="746.8662" x2="746.8662" y1="966.625" y2="986.625"/><polygon fill="#181818" points="742.8662,976.625,746.8662,986.625,750.8662,976.625,746.8662,980.625" style="stroke:#181818;stroke-width:1;"/><line style="stroke:#181818;stroke-width:1;" x1="746.8662" x2="746.8662" y1="1020.5938" y2="1040.5938"/><polygon fill="#181818" points="742.8662,1030.5938,746.8662,1040.5938,750.8662,1030.5938,746.8662,1034.5938" style="stroke:#181818;stroke-width:1;"/><line style="stroke:#181818;stroke-width:1;" x1="746.8662" x2="746.8662" y1="1074.5625" y2="1094.5625"/><polygon fill="#181818" points="742.8662,1084.5625,746.8662,1094.5625,750.8662,1084.5625,746.8662,1088.5625" style="stroke:#181818;stroke-width:1;"/><!--SRC=[bLNBZjD04BpdA-QuaPOVm0U-9H89HA0iskG371jOfAms0Wv871O1HowEDoPH7DlIVi7q7srLJyQna_1OvH1xfgUwkhgcFPxqBYUTpbFxrUPsRJDRI6GanCETNSjK8Zol9PJOPdYUojmW2f76flBEbdQ9tGWlnYPsWr-2I404GFpk002rjOcn5QFncW8fjBznCY6caLYkv2Cs2fdPpEXwuLw20rx8ERCByl5d8u2cI1hAJ4biR8dD5KuK4XyTB-MjxczjBdC5G2Xv9tPrVemEAgLMa237HcB3iaiKaYDZHFpEuEBoLSUOus81KhfIVQO2CE0YL-JJOCvmx1cPWWYGaHM56pCSc3FxmqVLPA1lnNgUTStaPN-460ZMHJnPDC9NYftXdtAdMfPkseBe_TVZFiuMvEPF_oHXvg50pA5CbTLEGd8jIJThqIbsEgs37T9VcqOTv9fQOQcWb8XDLLvr5Y2N6ZC_wB7o7ZqV3bHsqtlH6uuw_qm7NIlo0ygYsRvPy9-DM_BFDKyTu4Ey-VMEqBFg9NcFnPkwWRS-7piSAvTCFh3iamriXf-uCUn9yiZsbPxnGbUtDD_Kr7ao0EE4xzmtDSqIcoKsQX1IITa97GUHNBSkGZqJrj1WwqvfK5Dxbq55QSsQU3Tb4isL7x2L-8HEZr7gb5Oy_yLVV8w5oB5s7UUK2-guJu1UeVQGkL2GqqSjam8rGt5gMbOA9x4CcNNz-V7aueqZeRxzWt_R7eJ_6utqjw2U3kmetXRQYyoRkAI6UdEeuiOnylCaqS48j4f5tR1dSjCQVmwdCJ_kL9PIXwgJgD8cOH8oA-emElpqt6VLErEHwFyvXTAf_WGZDzbb3FsTkssX7LQyyy-yDNauRG_QLcd2hFqPSlDQqqtD_QzMAaM-puFEgOjFnnLQ_bxo1jHUAGIVKPKAwvXSvmUV2NWqE1vAD6ZEBrtzqJjTiSwe_Irozs_Tek9iJMCz0000]--></g></svg>